<?xml version="1.0" standalone="no"?>
<!DOCTYPE svg PUBLIC "-//W3C//DTD SVG 20010904//EN"
 "http://www.w3.org/TR/2001/REC-SVG-20010904/DTD/svg10.dtd">
<svg version="1.0" xmlns="http://www.w3.org/2000/svg"
 width="500.000000pt" height="500.000000pt" viewBox="0 0 500.000000 500.000000"
 preserveAspectRatio="xMidYMid meet">
<metadata>
Created by potrace 1.11, written by Peter Selinger 2001-2013
</metadata>
<g transform="translate(0.000000,500.000000) scale(0.100000,-0.100000)"
fill="#000000" stroke="none">
<path d="M3795 3826 c-16 -7 -412 -397 -878 -866 l-848 -854 -402 401 c-221
221 -416 408 -434 417 -39 20 -113 21 -156 2 -41 -18 -333 -312 -347 -349 -15
-42 -12 -124 6 -160 23 -45 1211 -1236 1251 -1253 42 -18 126 -18 161 0 36 19
2114 2102 2141 2146 23 39 28 119 11 167 -13 32 -301 327 -342 349 -33 17
-123 18 -163 0z"/>
</g>
</svg>
